<?xml version="1.0" encoding="UTF-8" standalone="no"?>
<!DOCTYPE svg PUBLIC "-//W3C//DTD SVG 1.1//EN"
 "http://www.w3.org/Graphics/SVG/1.1/DTD/svg11.dtd">
<!-- Generated by graphviz version 2.40.1 (20161225.0304)
 -->
<!-- Title: state transitions Pages: 1 -->
<svg width="1082pt" height="1048pt"
 viewBox="0.00 0.00 1082.00 1048.00" xmlns="http://www.w3.org/2000/svg" xmlns:xlink="http://www.w3.org/1999/xlink">
<g id="graph0" class="graph" transform="scale(1 1) rotate(0) translate(4 1044)">
<title>state transitions</title>
<polygon fill="#ffffff" stroke="transparent" points="-4,4 -4,-1044 1078,-1044 1078,4 -4,4"/>
<g id="clust1" class="cluster state regular">
<title>cluster_next_state</title>
<path fill="none" stroke="#000000" stroke-width="2" d="M20,-8C20,-8 1054,-8 1054,-8 1060,-8 1066,-14 1066,-20 1066,-20 1066,-1020 1066,-1020 1066,-1026 1060,-1032 1054,-1032 1054,-1032 20,-1032 20,-1032 14,-1032 8,-1026 8,-1020 8,-1020 8,-20 8,-20 8,-14 14,-8 20,-8"/>
<text text-anchor="start" x="509.8208" y="-1013.2" font-family="Helvetica,sans-Serif" font-size="12.00" fill="#000000">next_state</text>
</g>
<!-- next_state -->
<!-- ALL_RED -->
<g id="node2" class="node state regular">
<title>ALL_RED</title>
<polygon fill="#ffffff" fill-opacity="0.003922" stroke="transparent" stroke-width="2" points="693.5,-964 618.5,-964 618.5,-928 693.5,-928 693.5,-964"/>
<text text-anchor="start" x="629.8282" y="-942.2" font-family="Helvetica,sans-Serif" font-size="12.00" fill="#000000">ALL_RED</text>
<path fill="none" stroke="#000000" stroke-width="2" d="M630.8333,-929C630.8333,-929 681.1667,-929 681.1667,-929 686.8333,-929 692.5,-934.6667 692.5,-940.3333 692.5,-940.3333 692.5,-951.6667 692.5,-951.6667 692.5,-957.3333 686.8333,-963 681.1667,-963 681.1667,-963 630.8333,-963 630.8333,-963 625.1667,-963 619.5,-957.3333 619.5,-951.6667 619.5,-951.6667 619.5,-940.3333 619.5,-940.3333 619.5,-934.6667 625.1667,-929 630.8333,-929"/>
</g>
<!-- ALL_RED&#45;&gt;ALL_RED -->
<g id="edge9" class="edge transition">
<title>ALL_RED&#45;&gt;ALL_RED</title>
<path fill="none" stroke="#000000" d="M693.7667,-956.4974C705.8908,-956.3898 715.5,-952.8906 715.5,-946 715.5,-941.2627 710.9582,-938.1284 704.1798,-936.5971"/>
<polygon fill="#000000" stroke="#000000" points="704.0778,-933.0672 693.7667,-935.5026 703.346,-940.0288 704.0778,-933.0672"/>
<text text-anchor="start" x="715.5" y="-985" font-family="Helvetica,sans-Serif" font-size="10.00" fill="#000000">not (NS_S5) &#160;&#160;</text>
<text text-anchor="start" x="715.5" y="-973" font-family="Helvetica,sans-Serif" font-size="10.00" fill="#000000">not (SN_S5) &#160;&#160;</text>
<text text-anchor="start" x="715.5" y="-961" font-family="Helvetica,sans-Serif" font-size="10.00" fill="#000000">not (EW_S5) &#160;&#160;</text>
<text text-anchor="start" x="715.5" y="-949" font-family="Helvetica,sans-Serif" font-size="10.00" fill="#000000">not (WE_S5) &#160;&#160;</text>
<text text-anchor="start" x="715.5" y="-937" font-family="Helvetica,sans-Serif" font-size="10.00" fill="#000000">not (NS_S1) &#160;&#160;</text>
<text text-anchor="start" x="715.5" y="-925" font-family="Helvetica,sans-Serif" font-size="10.00" fill="#000000">not (SN_S1) &#160;&#160;</text>
<text text-anchor="start" x="715.5" y="-913" font-family="Helvetica,sans-Serif" font-size="10.00" fill="#000000">not (EW_S1) &#160;&#160;</text>
<text text-anchor="start" x="715.5" y="-901" font-family="Helvetica,sans-Serif" font-size="10.00" fill="#000000">not (WE_S1) &#160;&#160;</text>
</g>
<!-- NS_PRIMARY_GREEN -->
<g id="node7" class="node state regular">
<title>NS_PRIMARY_GREEN</title>
<polygon fill="#ffffff" fill-opacity="0.003922" stroke="transparent" stroke-width="2" points="682.5,-834 533.5,-834 533.5,-798 682.5,-798 682.5,-834"/>
<text text-anchor="start" x="544.8316" y="-812.2" font-family="Helvetica,sans-Serif" font-size="12.00" fill="#000000">NS_PRIMARY_GREEN</text>
<path fill="none" stroke="#000000" stroke-width="2" d="M545.8333,-799C545.8333,-799 670.1667,-799 670.1667,-799 675.8333,-799 681.5,-804.6667 681.5,-810.3333 681.5,-810.3333 681.5,-821.6667 681.5,-821.6667 681.5,-827.3333 675.8333,-833 670.1667,-833 670.1667,-833 545.8333,-833 545.8333,-833 540.1667,-833 534.5,-827.3333 534.5,-821.6667 534.5,-821.6667 534.5,-810.3333 534.5,-810.3333 534.5,-804.6667 540.1667,-799 545.8333,-799"/>
</g>
<!-- ALL_RED&#45;&gt;NS_PRIMARY_GREEN -->
<g id="edge5" class="edge transition">
<title>ALL_RED&#45;&gt;NS_PRIMARY_GREEN</title>
<path fill="none" stroke="#000000" d="M649.3258,-927.9241C641.2754,-906.1209 627.6561,-869.2352 618.2654,-843.8022"/>
<polygon fill="#000000" stroke="#000000" points="621.5194,-842.5101 614.7723,-834.3415 614.9527,-844.9348 621.5194,-842.5101"/>
<text text-anchor="start" x="632" y="-872" font-family="Helvetica,sans-Serif" font-size="10.00" fill="#000000">NS_S1 &#160;&#160;</text>
</g>
<!-- NS_EXTENDED_GREEN -->
<g id="node8" class="node state regular">
<title>NS_EXTENDED_GREEN</title>
<polygon fill="#ffffff" fill-opacity="0.003922" stroke="transparent" stroke-width="2" points="260,-52 100,-52 100,-16 260,-16 260,-52"/>
<text text-anchor="start" x="110.9982" y="-30.2" font-family="Helvetica,sans-Serif" font-size="12.00" fill="#000000">NS_EXTENDED_GREEN</text>
<path fill="none" stroke="#000000" stroke-width="2" d="M112.3333,-17C112.3333,-17 247.6667,-17 247.6667,-17 253.3333,-17 259,-22.6667 259,-28.3333 259,-28.3333 259,-39.6667 259,-39.6667 259,-45.3333 253.3333,-51 247.6667,-51 247.6667,-51 112.3333,-51 112.3333,-51 106.6667,-51 101,-45.3333 101,-39.6667 101,-39.6667 101,-28.3333 101,-28.3333 101,-22.6667 106.6667,-17 112.3333,-17"/>
</g>
<!-- ALL_RED&#45;&gt;NS_EXTENDED_GREEN -->
<g id="edge1" class="edge transition">
<title>ALL_RED&#45;&gt;NS_EXTENDED_GREEN</title>
<path fill="none" stroke="#000000" d="M618.2716,-945.65C484.0947,-943.9133 38,-933.7236 38,-875 38,-875 38,-875 38,-417.5 38,-367.2915 17,-356.7085 17,-306.5 17,-306.5 17,-306.5 17,-75 17,-57.6558 52.1482,-47.5787 89.8015,-41.7594"/>
<polygon fill="#000000" stroke="#000000" points="90.5342,-45.1901 99.9326,-40.2993 89.5355,-38.2617 90.5342,-45.1901"/>
<text text-anchor="start" x="37" y="-400" font-family="Helvetica,sans-Serif" font-size="10.00" fill="#000000">NS_S5 &#160;&#160;</text>
</g>
<!-- SN_PRIMARY_GREEN -->
<g id="node9" class="node state regular">
<title>SN_PRIMARY_GREEN</title>
<polygon fill="#ffffff" fill-opacity="0.003922" stroke="transparent" stroke-width="2" points="453.5,-216 304.5,-216 304.5,-180 453.5,-180 453.5,-216"/>
<text text-anchor="start" x="315.8316" y="-194.2" font-family="Helvetica,sans-Serif" font-size="12.00" fill="#000000">SN_PRIMARY_GREEN</text>
<path fill="none" stroke="#000000" stroke-width="2" d="M316.8333,-181C316.8333,-181 441.1667,-181 441.1667,-181 446.8333,-181 452.5,-186.6667 452.5,-192.3333 452.5,-192.3333 452.5,-203.6667 452.5,-203.6667 452.5,-209.3333 446.8333,-215 441.1667,-215 441.1667,-215 316.8333,-215 316.8333,-215 311.1667,-215 305.5,-209.3333 305.5,-203.6667 305.5,-203.6667 305.5,-192.3333 305.5,-192.3333 305.5,-186.6667 311.1667,-181 316.8333,-181"/>
</g>
<!-- ALL_RED&#45;&gt;SN_PRIMARY_GREEN -->
<g id="edge6" class="edge transition">
<title>ALL_RED&#45;&gt;SN_PRIMARY_GREEN</title>
<path fill="none" stroke="#000000" d="M618.2873,-944.5101C503.3136,-939.4711 165,-920.7564 165,-875 165,-875 165,-875 165,-535.5 165,-518.6853 163.9511,-245.675 175,-233 190.767,-214.9125 245.6014,-206.1716 294.4512,-201.9478"/>
<polygon fill="#000000" stroke="#000000" points="294.763,-205.4341 304.4475,-201.1376 294.1974,-198.457 294.763,-205.4341"/>
<text text-anchor="start" x="164" y="-518" font-family="Helvetica,sans-Serif" font-size="10.00" fill="#000000">SN_S1 &#160;&#160;</text>
</g>
<!-- SN_EXTENDED_GREEN -->
<g id="node10" class="node state regular">
<title>SN_EXTENDED_GREEN</title>
<polygon fill="#ffffff" fill-opacity="0.003922" stroke="transparent" stroke-width="2" points="683,-216 523,-216 523,-180 683,-180 683,-216"/>
<text text-anchor="start" x="533.9982" y="-194.2" font-family="Helvetica,sans-Serif" font-size="12.00" fill="#000000">SN_EXTENDED_GREEN</text>
<path fill="none" stroke="#000000" stroke-width="2" d="M535.3333,-181C535.3333,-181 670.6667,-181 670.6667,-181 676.3333,-181 682,-186.6667 682,-192.3333 682,-192.3333 682,-203.6667 682,-203.6667 682,-209.3333 676.3333,-215 670.6667,-215 670.6667,-215 535.3333,-215 535.3333,-215 529.6667,-215 524,-209.3333 524,-203.6667 524,-203.6667 524,-192.3333 524,-192.3333 524,-186.6667 529.6667,-181 535.3333,-181"/>
</g>
<!-- ALL_RED&#45;&gt;SN_EXTENDED_GREEN -->
<g id="edge2" class="edge transition">
<title>ALL_RED&#45;&gt;SN_EXTENDED_GREEN</title>
<path fill="none" stroke="#000000" d="M693.6792,-939.3555C747.5108,-928.7742 840,-906.0729 840,-875 840,-875 840,-875 840,-506.5 840,-430.1212 882.0228,-404.7948 851,-335 823.5201,-273.1758 797.5683,-265.078 738,-233 724.0534,-225.4897 708.4185,-219.5322 692.869,-214.8243"/>
<polygon fill="#000000" stroke="#000000" points="693.7917,-211.4479 683.2141,-212.0517 691.8596,-218.176 693.7917,-211.4479"/>
<text text-anchor="start" x="840" y="-518" font-family="Helvetica,sans-Serif" font-size="10.00" fill="#000000">SN_S5 &#160;&#160;</text>
</g>
<!-- EW_PRIMARY_GREEN -->
<g id="node11" class="node state regular">
<title>EW_PRIMARY_GREEN</title>
<polygon fill="#ffffff" fill-opacity="0.003922" stroke="transparent" stroke-width="2" points="565,-52 413,-52 413,-16 565,-16 565,-52"/>
<text text-anchor="start" x="423.9996" y="-30.2" font-family="Helvetica,sans-Serif" font-size="12.00" fill="#000000">EW_PRIMARY_GREEN</text>
<path fill="none" stroke="#000000" stroke-width="2" d="M425.3333,-17C425.3333,-17 552.6667,-17 552.6667,-17 558.3333,-17 564,-22.6667 564,-28.3333 564,-28.3333 564,-39.6667 564,-39.6667 564,-45.3333 558.3333,-51 552.6667,-51 552.6667,-51 425.3333,-51 425.3333,-51 419.6667,-51 414,-45.3333 414,-39.6667 414,-39.6667 414,-28.3333 414,-28.3333 414,-22.6667 419.6667,-17 425.3333,-17"/>
</g>
<!-- ALL_RED&#45;&gt;EW_PRIMARY_GREEN -->
<g id="edge7" class="edge transition">
<title>ALL_RED&#45;&gt;EW_PRIMARY_GREEN</title>
<path fill="none" stroke="#000000" d="M693.7275,-939.5446C777.9624,-924.8764 974,-889.2126 974,-875 974,-875 974,-875 974,-506.5 974,-470.6533 985.8705,-457.6287 969,-426 963.146,-415.0251 954.1971,-418.9763 946.768,-409 881.763,-321.7062 910.0855,-276.6297 860,-180 832.6013,-127.1398 835.8472,-99.9749 785,-69 750.8647,-48.2056 650.1376,-39.7626 575.6192,-36.3365"/>
<polygon fill="#000000" stroke="#000000" points="575.431,-32.825 565.2879,-35.8856 575.1258,-39.8184 575.431,-32.825"/>
<text text-anchor="start" x="946" y="-400" font-family="Helvetica,sans-Serif" font-size="10.00" fill="#000000">EW_S1 &#160;&#160;</text>
</g>
<!-- EW_EXTENDED_GREEN -->
<g id="node12" class="node state regular">
<title>EW_EXTENDED_GREEN</title>
<polygon fill="#ffffff" fill-opacity="0.003922" stroke="transparent" stroke-width="2" points="680,-380 518,-380 518,-344 680,-344 680,-380"/>
<text text-anchor="start" x="528.6662" y="-358.2" font-family="Helvetica,sans-Serif" font-size="12.00" fill="#000000">EW_EXTENDED_GREEN</text>
<path fill="none" stroke="#000000" stroke-width="2" d="M530.3333,-345C530.3333,-345 667.6667,-345 667.6667,-345 673.3333,-345 679,-350.6667 679,-356.3333 679,-356.3333 679,-367.6667 679,-367.6667 679,-373.3333 673.3333,-379 667.6667,-379 667.6667,-379 530.3333,-379 530.3333,-379 524.6667,-379 519,-373.3333 519,-367.6667 519,-367.6667 519,-356.3333 519,-356.3333 519,-350.6667 524.6667,-345 530.3333,-345"/>
</g>
<!-- ALL_RED&#45;&gt;EW_EXTENDED_GREEN -->
<g id="edge3" class="edge transition">
<title>ALL_RED&#45;&gt;EW_EXTENDED_GREEN</title>
<path fill="none" stroke="#000000" d="M693.6523,-939.774C728.5156,-931.6034 775,-913.492 775,-875 775,-875 775,-875 775,-653.5 775,-604.8313 789.0849,-590.8767 776,-544 755.4662,-470.4375 745.2931,-446.3458 687,-397 681.4783,-392.3258 675.2551,-388.2245 668.7347,-384.6371"/>
<polygon fill="#000000" stroke="#000000" points="670.1991,-381.4556 659.6968,-380.0583 667.0355,-387.6999 670.1991,-381.4556"/>
<text text-anchor="start" x="775" y="-636" font-family="Helvetica,sans-Serif" font-size="10.00" fill="#000000">EW_S5 &#160;&#160;</text>
</g>
<!-- WE_PRIMARY_GREEN -->
<g id="node13" class="node state regular">
<title>WE_PRIMARY_GREEN</title>
<polygon fill="#ffffff" fill-opacity="0.003922" stroke="transparent" stroke-width="2" points="916,-52 764,-52 764,-16 916,-16 916,-52"/>
<text text-anchor="start" x="774.9996" y="-30.2" font-family="Helvetica,sans-Serif" font-size="12.00" fill="#000000">WE_PRIMARY_GREEN</text>
<path fill="none" stroke="#000000" stroke-width="2" d="M776.3333,-17C776.3333,-17 903.6667,-17 903.6667,-17 909.3333,-17 915,-22.6667 915,-28.3333 915,-28.3333 915,-39.6667 915,-39.6667 915,-45.3333 909.3333,-51 903.6667,-51 903.6667,-51 776.3333,-51 776.3333,-51 770.6667,-51 765,-45.3333 765,-39.6667 765,-39.6667 765,-28.3333 765,-28.3333 765,-22.6667 770.6667,-17 776.3333,-17"/>
</g>
<!-- ALL_RED&#45;&gt;WE_PRIMARY_GREEN -->
<g id="edge8" class="edge transition">
<title>ALL_RED&#45;&gt;WE_PRIMARY_GREEN</title>
<path fill="none" stroke="#000000" d="M693.5075,-939.5828C785.7125,-923.6818 1016,-883.1521 1016,-875 1016,-875 1016,-875 1016,-75 1016,-54.6555 970.8295,-44.4017 926.2558,-39.2359"/>
<polygon fill="#000000" stroke="#000000" points="926.4901,-35.741 916.1725,-38.149 925.7398,-42.7006 926.4901,-35.741"/>
<text text-anchor="start" x="1016" y="-400" font-family="Helvetica,sans-Serif" font-size="10.00" fill="#000000">WE_S1 &#160;&#160;</text>
</g>
<!-- WE_EXTENDED_GREEN -->
<g id="node14" class="node state regular">
<title>WE_EXTENDED_GREEN</title>
<polygon fill="#ffffff" fill-opacity="0.003922" stroke="transparent" stroke-width="2" points="461,-598 299,-598 299,-562 461,-562 461,-598"/>
<text text-anchor="start" x="309.6662" y="-576.2" font-family="Helvetica,sans-Serif" font-size="12.00" fill="#000000">WE_EXTENDED_GREEN</text>
<path fill="none" stroke="#000000" stroke-width="2" d="M311.3333,-563C311.3333,-563 448.6667,-563 448.6667,-563 454.3333,-563 460,-568.6667 460,-574.3333 460,-574.3333 460,-585.6667 460,-585.6667 460,-591.3333 454.3333,-597 448.6667,-597 448.6667,-597 311.3333,-597 311.3333,-597 305.6667,-597 300,-591.3333 300,-585.6667 300,-585.6667 300,-574.3333 300,-574.3333 300,-568.6667 305.6667,-563 311.3333,-563"/>
</g>
<!-- ALL_RED&#45;&gt;WE_EXTENDED_GREEN -->
<g id="edge4" class="edge transition">
<title>ALL_RED&#45;&gt;WE_EXTENDED_GREEN</title>
<path fill="none" stroke="#000000" d="M618.3849,-944.6349C539.918,-940.7614 366,-926.3806 366,-875 366,-875 366,-875 366,-639 366,-628.7176 368.0379,-617.6929 370.5587,-607.9892"/>
<polygon fill="#000000" stroke="#000000" points="374.0095,-608.6534 373.4099,-598.0756 367.2822,-606.7186 374.0095,-608.6534"/>
<text text-anchor="start" x="366" y="-754" font-family="Helvetica,sans-Serif" font-size="10.00" fill="#000000">WE_S5 &#160;&#160;</text>
</g>
<!-- NS_YELLOW -->
<g id="node3" class="node state regular">
<title>NS_YELLOW</title>
<polygon fill="#ffffff" fill-opacity="0.003922" stroke="transparent" stroke-width="2" points="493.5,-716 398.5,-716 398.5,-680 493.5,-680 493.5,-716"/>
<text text-anchor="start" x="409.8274" y="-694.2" font-family="Helvetica,sans-Serif" font-size="12.00" fill="#000000">NS_YELLOW</text>
<path fill="none" stroke="#000000" stroke-width="2" d="M410.8333,-681C410.8333,-681 481.1667,-681 481.1667,-681 486.8333,-681 492.5,-686.6667 492.5,-692.3333 492.5,-692.3333 492.5,-703.6667 492.5,-703.6667 492.5,-709.3333 486.8333,-715 481.1667,-715 481.1667,-715 410.8333,-715 410.8333,-715 405.1667,-715 399.5,-709.3333 399.5,-703.6667 399.5,-703.6667 399.5,-692.3333 399.5,-692.3333 399.5,-686.6667 405.1667,-681 410.8333,-681"/>
</g>
<!-- NS_YELLOW&#45;&gt;ALL_RED -->
<g id="edge16" class="edge transition">
<title>NS_YELLOW&#45;&gt;ALL_RED</title>
<path fill="none" stroke="#000000" d="M446,-716.0755C446,-727.7525 446,-743.2743 446,-757 446,-875 446,-875 446,-875 446,-909.0865 546.5463,-929.9951 608.4933,-939.6422"/>
<polygon fill="#000000" stroke="#000000" points="608.0452,-943.1142 618.4562,-941.1491 609.0921,-936.1929 608.0452,-943.1142"/>
<text text-anchor="start" x="446" y="-843" font-family="Helvetica,sans-Serif" font-size="10.00" fill="#000000">not (SN_S5) &#160;&#160;</text>
<text text-anchor="start" x="446" y="-831" font-family="Helvetica,sans-Serif" font-size="10.00" fill="#000000">not (EW_S5) &#160;&#160;</text>
<text text-anchor="start" x="446" y="-819" font-family="Helvetica,sans-Serif" font-size="10.00" fill="#000000">not (WE_S5) &#160;&#160;</text>
<text text-anchor="start" x="446" y="-807" font-family="Helvetica,sans-Serif" font-size="10.00" fill="#000000">not (SN_S1) &#160;&#160;</text>
<text text-anchor="start" x="446" y="-795" font-family="Helvetica,sans-Serif" font-size="10.00" fill="#000000">not (EW_S1) &#160;&#160;</text>
<text text-anchor="start" x="446" y="-783" font-family="Helvetica,sans-Serif" font-size="10.00" fill="#000000">not (WE_S1) &#160;&#160;</text>
</g>
<!-- NS_YELLOW&#45;&gt;SN_PRIMARY_GREEN -->
<g id="edge13" class="edge transition">
<title>NS_YELLOW&#45;&gt;SN_PRIMARY_GREEN</title>
<path fill="none" stroke="#000000" d="M398.1931,-690.9448C347.9114,-682.1427 276,-665.008 276,-639 276,-639 276,-639 276,-535.5 276,-471.3024 199.7269,-450.6468 234.988,-397 278.0713,-331.4523 353.9167,-392.5477 397,-327 416.9986,-296.5738 404.7195,-253.3894 392.8545,-225.5324"/>
<polygon fill="#000000" stroke="#000000" points="396.0241,-224.047 388.7285,-216.3642 389.6408,-226.9197 396.0241,-224.047"/>
<text text-anchor="start" x="234" y="-400" font-family="Helvetica,sans-Serif" font-size="10.00" fill="#000000">SN_S1 &#160;&#160;</text>
</g>
<!-- NS_YELLOW&#45;&gt;SN_EXTENDED_GREEN -->
<g id="edge10" class="edge transition">
<title>NS_YELLOW&#45;&gt;SN_EXTENDED_GREEN</title>
<path fill="none" stroke="#000000" d="M460.1325,-679.8184C512.0708,-612.9792 689.4659,-384.5047 691,-380 710.8274,-321.7775 662.2707,-257.98 629.6639,-223.5242"/>
<polygon fill="#000000" stroke="#000000" points="632.0534,-220.9609 622.5759,-216.2251 627.0316,-225.8375 632.0534,-220.9609"/>
<text text-anchor="start" x="678" y="-400" font-family="Helvetica,sans-Serif" font-size="10.00" fill="#000000">SN_S5 &#160;&#160;</text>
</g>
<!-- NS_YELLOW&#45;&gt;EW_PRIMARY_GREEN -->
<g id="edge14" class="edge transition">
<title>NS_YELLOW&#45;&gt;EW_PRIMARY_GREEN</title>
<path fill="none" stroke="#000000" d="M398.4811,-693.8276C362.8715,-688.8348 314.246,-677.9004 278,-654 222.1895,-617.1988 245.4423,-565.5901 186,-535 166.7694,-525.1036 152.477,-543.0677 138,-527 116.1235,-502.7197 115.2672,-262.6567 129,-233 166.2731,-152.5068 197.9717,-140.1903 276,-98 303.0239,-83.388 317.0083,-97.3779 343,-81 348.8736,-77.2989 347.1327,-72.7111 353,-69 368.1253,-59.4333 385.7585,-52.4752 403.2179,-47.4163"/>
<polygon fill="#000000" stroke="#000000" points="404.1465,-50.791 412.8826,-44.7967 402.3152,-44.0348 404.1465,-50.791"/>
<text text-anchor="start" x="120" y="-318" font-family="Helvetica,sans-Serif" font-size="10.00" fill="#000000">EW_S1 &#160;&#160;</text>
</g>
<!-- NS_YELLOW&#45;&gt;EW_EXTENDED_GREEN -->
<g id="edge11" class="edge transition">
<title>NS_YELLOW&#45;&gt;EW_EXTENDED_GREEN</title>
<path fill="none" stroke="#000000" d="M451.9697,-679.8191C457.3644,-663.2404 465.4409,-638.0442 472,-616 485.3109,-571.264 481.5606,-557.539 500.768,-515 522.1675,-467.606 556.7037,-417.8511 578.6078,-388.3998"/>
<polygon fill="#000000" stroke="#000000" points="581.4901,-390.3903 584.7004,-380.2935 575.8944,-386.1846 581.4901,-390.3903"/>
<text text-anchor="start" x="500" y="-518" font-family="Helvetica,sans-Serif" font-size="10.00" fill="#000000">EW_S5 &#160;&#160;</text>
</g>
<!-- NS_YELLOW&#45;&gt;WE_PRIMARY_GREEN -->
<g id="edge15" class="edge transition">
<title>NS_YELLOW&#45;&gt;WE_PRIMARY_GREEN</title>
<path fill="none" stroke="#000000" d="M493.7113,-690.3515C532.4193,-681.5135 585.1366,-662.9784 614,-625 643.0967,-586.7145 674.7624,-467.5323 699,-426 703.7941,-417.785 706.2368,-416.5667 712,-409 721.8026,-396.13 724.8882,-393.368 734,-380 782.0824,-309.4579 802.6437,-295.4033 834,-216 858.3939,-154.2278 854.3153,-131.1745 845.9353,-62.1464"/>
<polygon fill="#000000" stroke="#000000" points="849.3953,-61.6031 844.7268,-52.0923 842.4453,-62.4385 849.3953,-61.6031"/>
<text text-anchor="start" x="780" y="-318" font-family="Helvetica,sans-Serif" font-size="10.00" fill="#000000">WE_S1 &#160;&#160;</text>
</g>
<!-- NS_YELLOW&#45;&gt;WE_EXTENDED_GREEN -->
<g id="edge12" class="edge transition">
<title>NS_YELLOW&#45;&gt;WE_EXTENDED_GREEN</title>
<path fill="none" stroke="#000000" d="M435.8321,-679.8211C424.9482,-660.362 407.565,-629.2828 395.0858,-606.9716"/>
<polygon fill="#000000" stroke="#000000" points="398.0073,-605.025 390.0711,-598.0059 391.898,-608.4421 398.0073,-605.025"/>
<text text-anchor="start" x="416" y="-636" font-family="Helvetica,sans-Serif" font-size="10.00" fill="#000000">WE_S5 &#160;&#160;</text>
</g>
<!-- SN_YELLOW -->
<g id="node4" class="node state regular">
<title>SN_YELLOW</title>
<polygon fill="#ffffff" fill-opacity="0.003922" stroke="transparent" stroke-width="2" points="654.5,-134 559.5,-134 559.5,-98 654.5,-98 654.5,-134"/>
<text text-anchor="start" x="570.8274" y="-112.2" font-family="Helvetica,sans-Serif" font-size="12.00" fill="#000000">SN_YELLOW</text>
<path fill="none" stroke="#000000" stroke-width="2" d="M571.8333,-99C571.8333,-99 642.1667,-99 642.1667,-99 647.8333,-99 653.5,-104.6667 653.5,-110.3333 653.5,-110.3333 653.5,-121.6667 653.5,-121.6667 653.5,-127.3333 647.8333,-133 642.1667,-133 642.1667,-133 571.8333,-133 571.8333,-133 566.1667,-133 560.5,-127.3333 560.5,-121.6667 560.5,-121.6667 560.5,-110.3333 560.5,-110.3333 560.5,-104.6667 566.1667,-99 571.8333,-99"/>
</g>
<!-- SN_YELLOW&#45;&gt;ALL_RED -->
<g id="edge23" class="edge transition">
<title>SN_YELLOW&#45;&gt;ALL_RED</title>
<path fill="none" stroke="#000000" d="M654.51,-119.451C693.7121,-123.0071 750.5604,-129.8023 799,-142 825.7249,-148.7297 835.8133,-155.2818 848,-180 883.3494,-251.6994 903,-455.5601 903,-535.5 903,-875 903,-875 903,-875 903,-916.0385 775.4644,-934.7592 703.679,-942.046"/>
<polygon fill="#000000" stroke="#000000" points="703.1261,-938.5833 693.514,-943.0395 703.807,-945.5501 703.1261,-938.5833"/>
<text text-anchor="start" x="901" y="-489" font-family="Helvetica,sans-Serif" font-size="10.00" fill="#000000">not (EW_S5) &#160;&#160;</text>
<text text-anchor="start" x="901" y="-477" font-family="Helvetica,sans-Serif" font-size="10.00" fill="#000000">not (WE_S5) &#160;&#160;</text>
<text text-anchor="start" x="901" y="-465" font-family="Helvetica,sans-Serif" font-size="10.00" fill="#000000">not (NS_S5) &#160;&#160;</text>
<text text-anchor="start" x="901" y="-453" font-family="Helvetica,sans-Serif" font-size="10.00" fill="#000000">not (EW_S1) &#160;&#160;</text>
<text text-anchor="start" x="901" y="-441" font-family="Helvetica,sans-Serif" font-size="10.00" fill="#000000">not (WE_S1) &#160;&#160;</text>
<text text-anchor="start" x="901" y="-429" font-family="Helvetica,sans-Serif" font-size="10.00" fill="#000000">not (NS_S1) &#160;&#160;</text>
</g>
<!-- SN_YELLOW&#45;&gt;NS_PRIMARY_GREEN -->
<g id="edge22" class="edge transition">
<title>SN_YELLOW&#45;&gt;NS_PRIMARY_GREEN</title>
<path fill="none" stroke="#000000" d="M654.6199,-119.2256C706.9587,-123.6146 786.8347,-133.063 811,-151 843.718,-175.2854 842.6385,-193.3439 852,-233 896.5257,-421.614 660,-430.7017 660,-624.5 660,-757 660,-757 660,-757 660,-770.036 652.767,-781.5549 643.6962,-790.8752"/>
<polygon fill="#000000" stroke="#000000" points="641.1003,-788.5084 636.1307,-797.8654 645.8507,-793.6498 641.1003,-788.5084"/>
<text text-anchor="start" x="802" y="-400" font-family="Helvetica,sans-Serif" font-size="10.00" fill="#000000">NS_S1 &#160;&#160;</text>
</g>
<!-- SN_YELLOW&#45;&gt;NS_EXTENDED_GREEN -->
<g id="edge19" class="edge transition">
<title>SN_YELLOW&#45;&gt;NS_EXTENDED_GREEN</title>
<path fill="none" stroke="#000000" d="M559.2606,-106.8322C489.4807,-93.4319 358.3565,-68.2511 270.0898,-51.3006"/>
<polygon fill="#000000" stroke="#000000" points="270.5621,-47.8274 260.0815,-49.3786 269.2419,-54.7018 270.5621,-47.8274"/>
<text text-anchor="start" x="421" y="-72" font-family="Helvetica,sans-Serif" font-size="10.00" fill="#000000">NS_S5 &#160;&#160;</text>
</g>
<!-- SN_YELLOW&#45;&gt;EW_PRIMARY_GREEN -->
<g id="edge20" class="edge transition">
<title>SN_YELLOW&#45;&gt;EW_PRIMARY_GREEN</title>
<path fill="none" stroke="#000000" d="M580.812,-97.8015C564.0072,-86.1237 541.9952,-70.8272 523.7371,-58.1393"/>
<polygon fill="#000000" stroke="#000000" points="525.324,-54.98 515.1148,-52.1476 521.3294,-60.7284 525.324,-54.98"/>
<text text-anchor="start" x="555" y="-72" font-family="Helvetica,sans-Serif" font-size="10.00" fill="#000000">EW_S1 &#160;&#160;</text>
</g>
<!-- SN_YELLOW&#45;&gt;EW_EXTENDED_GREEN -->
<g id="edge17" class="edge transition">
<title>SN_YELLOW&#45;&gt;EW_EXTENDED_GREEN</title>
<path fill="none" stroke="#000000" d="M646.4274,-134.2621C664.4218,-144.8595 683.9288,-160.0886 694,-180 701.2216,-194.2776 696.8159,-200.2497 694,-216 684.7444,-267.7703 685.8548,-285.9343 653,-327 649.9334,-330.8329 646.3288,-334.3812 642.4612,-337.6295"/>
<polygon fill="#000000" stroke="#000000" points="640.0887,-335.0363 634.241,-343.8712 644.3219,-340.6113 640.0887,-335.0363"/>
<text text-anchor="start" x="691" y="-236" font-family="Helvetica,sans-Serif" font-size="10.00" fill="#000000">EW_S5 &#160;&#160;</text>
</g>
<!-- SN_YELLOW&#45;&gt;WE_PRIMARY_GREEN -->
<g id="edge21" class="edge transition">
<title>SN_YELLOW&#45;&gt;WE_PRIMARY_GREEN</title>
<path fill="none" stroke="#000000" d="M654.7133,-99.2082C690.6754,-86.552 740.2618,-69.101 779.0884,-55.4367"/>
<polygon fill="#000000" stroke="#000000" points="780.4419,-58.6709 788.7129,-52.0496 778.118,-52.0678 780.4419,-58.6709"/>
<text text-anchor="start" x="738" y="-72" font-family="Helvetica,sans-Serif" font-size="10.00" fill="#000000">WE_S1 &#160;&#160;</text>
</g>
<!-- SN_YELLOW&#45;&gt;WE_EXTENDED_GREEN -->
<g id="edge18" class="edge transition">
<title>SN_YELLOW&#45;&gt;WE_EXTENDED_GREEN</title>
<path fill="none" stroke="#000000" d="M568.4016,-134.0446C542.6831,-145.7651 511.1077,-159.4927 497,-163 453.0683,-173.9219 329.8839,-152.4023 294,-180 178.9744,-268.4642 144.3264,-374.1844 220,-498 237.5543,-526.722 268.7128,-545.7969 298.8983,-558.2555"/>
<polygon fill="#000000" stroke="#000000" points="297.6314,-561.5182 308.2189,-561.913 300.1884,-555.0019 297.6314,-561.5182"/>
<text text-anchor="start" x="188" y="-318" font-family="Helvetica,sans-Serif" font-size="10.00" fill="#000000">WE_S5 &#160;&#160;</text>
</g>
<!-- EW_YELLOW -->
<g id="node5" class="node state regular">
<title>EW_YELLOW</title>
<polygon fill="#ffffff" fill-opacity="0.003922" stroke="transparent" stroke-width="2" points="544,-298 446,-298 446,-262 544,-262 544,-298"/>
<text text-anchor="start" x="456.9954" y="-276.2" font-family="Helvetica,sans-Serif" font-size="12.00" fill="#000000">EW_YELLOW</text>
<path fill="none" stroke="#000000" stroke-width="2" d="M458.3333,-263C458.3333,-263 531.6667,-263 531.6667,-263 537.3333,-263 543,-268.6667 543,-274.3333 543,-274.3333 543,-285.6667 543,-285.6667 543,-291.3333 537.3333,-297 531.6667,-297 531.6667,-297 458.3333,-297 458.3333,-297 452.6667,-297 447,-291.3333 447,-285.6667 447,-285.6667 447,-274.3333 447,-274.3333 447,-268.6667 452.6667,-263 458.3333,-263"/>
</g>
<!-- EW_YELLOW&#45;&gt;ALL_RED -->
<g id="edge30" class="edge transition">
<title>EW_YELLOW&#45;&gt;ALL_RED</title>
<path fill="none" stroke="#000000" d="M491.9112,-298.0315C489.2392,-319.8792 488.3171,-356.655 507,-380 514.0706,-388.8349 545.0834,-391.5493 555,-397 634.5184,-440.7077 705,-444.7612 705,-535.5 705,-875 705,-875 705,-875 705,-891.9543 695.4185,-907.7976 684.7294,-920.1973"/>
<polygon fill="#000000" stroke="#000000" points="681.8823,-918.1192 677.6347,-927.8254 687.008,-922.8865 681.8823,-918.1192"/>
<text text-anchor="start" x="705" y="-607" font-family="Helvetica,sans-Serif" font-size="10.00" fill="#000000">not (WE_S5) &#160;&#160;</text>
<text text-anchor="start" x="705" y="-595" font-family="Helvetica,sans-Serif" font-size="10.00" fill="#000000">not (NS_S5) &#160;&#160;</text>
<text text-anchor="start" x="705" y="-583" font-family="Helvetica,sans-Serif" font-size="10.00" fill="#000000">not (SN_S5) &#160;&#160;</text>
<text text-anchor="start" x="705" y="-571" font-family="Helvetica,sans-Serif" font-size="10.00" fill="#000000">not (WE_S1) &#160;&#160;</text>
<text text-anchor="start" x="705" y="-559" font-family="Helvetica,sans-Serif" font-size="10.00" fill="#000000">not (NS_S1) &#160;&#160;</text>
<text text-anchor="start" x="705" y="-547" font-family="Helvetica,sans-Serif" font-size="10.00" fill="#000000">not (SN_S1) &#160;&#160;</text>
</g>
<!-- EW_YELLOW&#45;&gt;NS_PRIMARY_GREEN -->
<g id="edge28" class="edge transition">
<title>EW_YELLOW&#45;&gt;NS_PRIMARY_GREEN</title>
<path fill="none" stroke="#000000" d="M487.4816,-298.2179C479.8541,-319.9151 471.4494,-356.2054 489,-380 496.5936,-390.2952 535.2075,-387.7077 544,-397 624.7547,-482.3449 608,-536.005 608,-653.5 608,-757 608,-757 608,-757 608,-767.0798 608,-778.1283 608,-787.9113"/>
<polygon fill="#000000" stroke="#000000" points="604.5001,-787.9245 608,-797.9245 611.5001,-787.9245 604.5001,-787.9245"/>
<text text-anchor="start" x="607" y="-518" font-family="Helvetica,sans-Serif" font-size="10.00" fill="#000000">NS_S1 &#160;&#160;</text>
</g>
<!-- EW_YELLOW&#45;&gt;NS_EXTENDED_GREEN -->
<g id="edge25" class="edge transition">
<title>EW_YELLOW&#45;&gt;NS_EXTENDED_GREEN</title>
<path fill="none" stroke="#000000" d="M491.308,-261.6848C485.9122,-236.3896 475.3813,-192.4657 465,-180 448.4745,-160.1563 305.8058,-92.2081 228.8071,-56.4365"/>
<polygon fill="#000000" stroke="#000000" points="229.8474,-53.0609 219.3029,-52.0295 226.9027,-59.4114 229.8474,-53.0609"/>
<text text-anchor="start" x="440" y="-154" font-family="Helvetica,sans-Serif" font-size="10.00" fill="#000000">NS_S5 &#160;&#160;</text>
</g>
<!-- EW_YELLOW&#45;&gt;SN_PRIMARY_GREEN -->
<g id="edge29" class="edge transition">
<title>EW_YELLOW&#45;&gt;SN_PRIMARY_GREEN</title>
<path fill="none" stroke="#000000" d="M464.6771,-261.8677C456.2413,-256.6045 447.156,-250.7276 438.988,-245 429.0178,-238.0087 418.4627,-229.9692 409.032,-222.5391"/>
<polygon fill="#000000" stroke="#000000" points="411.0808,-219.6966 401.0768,-216.2081 406.7219,-225.1738 411.0808,-219.6966"/>
<text text-anchor="start" x="438" y="-236" font-family="Helvetica,sans-Serif" font-size="10.00" fill="#000000">SN_S1 &#160;&#160;</text>
</g>
<!-- EW_YELLOW&#45;&gt;SN_EXTENDED_GREEN -->
<g id="edge26" class="edge transition">
<title>EW_YELLOW&#45;&gt;SN_EXTENDED_GREEN</title>
<path fill="none" stroke="#000000" d="M518.9687,-261.8015C534.2095,-250.2298 554.13,-235.105 570.7502,-222.486"/>
<polygon fill="#000000" stroke="#000000" points="573.2503,-224.9823 579.0983,-216.1476 569.0173,-219.4071 573.2503,-224.9823"/>
<text text-anchor="start" x="556" y="-236" font-family="Helvetica,sans-Serif" font-size="10.00" fill="#000000">SN_S5 &#160;&#160;</text>
</g>
<!-- EW_YELLOW&#45;&gt;WE_PRIMARY_GREEN -->
<g id="edge27" class="edge transition">
<title>EW_YELLOW&#45;&gt;WE_PRIMARY_GREEN</title>
<path fill="none" stroke="#000000" d="M544.0797,-278.2946C605.9858,-275.2463 707.9897,-266.9628 738,-245 754.0733,-233.2369 805.2341,-116.021 828.4022,-61.5546"/>
<polygon fill="#000000" stroke="#000000" points="831.7066,-62.7272 832.3877,-52.1543 825.2618,-59.9948 831.7066,-62.7272"/>
<text text-anchor="start" x="788" y="-154" font-family="Helvetica,sans-Serif" font-size="10.00" fill="#000000">WE_S1 &#160;&#160;</text>
</g>
<!-- EW_YELLOW&#45;&gt;WE_EXTENDED_GREEN -->
<g id="edge24" class="edge transition">
<title>EW_YELLOW&#45;&gt;WE_EXTENDED_GREEN</title>
<path fill="none" stroke="#000000" d="M472.953,-298.1396C460.2891,-309.8528 445.2959,-326.1943 437,-344 404.1226,-414.5657 389.0159,-506.1495 383.1511,-551.6944"/>
<polygon fill="#000000" stroke="#000000" points="379.6643,-551.3729 381.9143,-561.726 386.6117,-552.2295 379.6643,-551.3729"/>
<text text-anchor="start" x="416" y="-400" font-family="Helvetica,sans-Serif" font-size="10.00" fill="#000000">WE_S5 &#160;&#160;</text>
</g>
<!-- WE_YELLOW -->
<g id="node6" class="node state regular">
<title>WE_YELLOW</title>
<polygon fill="#ffffff" fill-opacity="0.003922" stroke="transparent" stroke-width="2" points="378,-480 280,-480 280,-444 378,-444 378,-480"/>
<text text-anchor="start" x="290.9954" y="-458.2" font-family="Helvetica,sans-Serif" font-size="12.00" fill="#000000">WE_YELLOW</text>
<path fill="none" stroke="#000000" stroke-width="2" d="M292.3333,-445C292.3333,-445 365.6667,-445 365.6667,-445 371.3333,-445 377,-450.6667 377,-456.3333 377,-456.3333 377,-467.6667 377,-467.6667 377,-473.3333 371.3333,-479 365.6667,-479 365.6667,-479 292.3333,-479 292.3333,-479 286.6667,-479 281,-473.3333 281,-467.6667 281,-467.6667 281,-456.3333 281,-456.3333 281,-450.6667 286.6667,-445 292.3333,-445"/>
</g>
<!-- WE_YELLOW&#45;&gt;ALL_RED -->
<g id="edge37" class="edge transition">
<title>WE_YELLOW&#45;&gt;ALL_RED</title>
<path fill="none" stroke="#000000" d="M304.1151,-480.1922C270.0305,-507.4226 213,-562.281 213,-624.5 213,-875 213,-875 213,-875 213,-914.6549 493.3244,-936.1484 607.989,-943.2814"/>
<polygon fill="#000000" stroke="#000000" points="608.0351,-946.7907 618.2301,-943.9076 608.4623,-939.8037 608.0351,-946.7907"/>
<text text-anchor="start" x="213" y="-725" font-family="Helvetica,sans-Serif" font-size="10.00" fill="#000000">not (NS_S5) &#160;&#160;</text>
<text text-anchor="start" x="213" y="-713" font-family="Helvetica,sans-Serif" font-size="10.00" fill="#000000">not (SN_S5) &#160;&#160;</text>
<text text-anchor="start" x="213" y="-701" font-family="Helvetica,sans-Serif" font-size="10.00" fill="#000000">not (EW_S5) &#160;&#160;</text>
<text text-anchor="start" x="213" y="-689" font-family="Helvetica,sans-Serif" font-size="10.00" fill="#000000">not (NS_S1) &#160;&#160;</text>
<text text-anchor="start" x="213" y="-677" font-family="Helvetica,sans-Serif" font-size="10.00" fill="#000000">not (SN_S1) &#160;&#160;</text>
<text text-anchor="start" x="213" y="-665" font-family="Helvetica,sans-Serif" font-size="10.00" fill="#000000">not (EW_S1) &#160;&#160;</text>
</g>
<!-- WE_YELLOW&#45;&gt;NS_PRIMARY_GREEN -->
<g id="edge34" class="edge transition">
<title>WE_YELLOW&#45;&gt;NS_PRIMARY_GREEN</title>
<path fill="none" stroke="#000000" d="M378.0137,-480.1122C441.7428,-507.2074 545,-564.7952 545,-653.5 545,-757 545,-757 545,-757 545,-770.9875 553.3759,-782.6188 564.0196,-791.7524"/>
<polygon fill="#000000" stroke="#000000" points="562.0242,-794.6332 572.0833,-797.9596 566.2941,-789.0863 562.0242,-794.6332"/>
<text text-anchor="start" x="544" y="-636" font-family="Helvetica,sans-Serif" font-size="10.00" fill="#000000">NS_S1 &#160;&#160;</text>
</g>
<!-- WE_YELLOW&#45;&gt;NS_EXTENDED_GREEN -->
<g id="edge31" class="edge transition">
<title>WE_YELLOW&#45;&gt;NS_EXTENDED_GREEN</title>
<path fill="none" stroke="#000000" d="M314.4953,-443.9696C303.9091,-430.8695 289.1685,-412.7508 276,-397 219.7227,-329.6866 180,-312.2395 180,-224.5 180,-224.5 180,-224.5 180,-75 180,-70.9516 180,-66.6784 180,-62.48"/>
<polygon fill="#000000" stroke="#000000" points="183.5001,-62.3687 180,-52.3688 176.5001,-62.3688 183.5001,-62.3687"/>
<text text-anchor="start" x="180" y="-236" font-family="Helvetica,sans-Serif" font-size="10.00" fill="#000000">NS_S5 &#160;&#160;</text>
</g>
<!-- WE_YELLOW&#45;&gt;SN_PRIMARY_GREEN -->
<g id="edge35" class="edge transition">
<title>WE_YELLOW&#45;&gt;SN_PRIMARY_GREEN</title>
<path fill="none" stroke="#000000" d="M333.6274,-443.9454C340.6016,-415.1038 353,-356.7618 353,-306.5 353,-306.5 353,-306.5 353,-239 353,-234.0956 354.3432,-229.3025 356.4191,-224.8235"/>
<polygon fill="#000000" stroke="#000000" points="359.4742,-226.5326 361.5134,-216.1358 353.4358,-222.9917 359.4742,-226.5326"/>
<text text-anchor="start" x="352" y="-318" font-family="Helvetica,sans-Serif" font-size="10.00" fill="#000000">SN_S1 &#160;&#160;</text>
</g>
<!-- WE_YELLOW&#45;&gt;SN_EXTENDED_GREEN -->
<g id="edge32" class="edge transition">
<title>WE_YELLOW&#45;&gt;SN_EXTENDED_GREEN</title>
<path fill="none" stroke="#000000" d="M370.7811,-443.9794C390.6181,-434.6656 414.2477,-422.4401 434,-409 469.9162,-384.5615 469.2193,-365.4437 507,-344 528.8822,-331.58 541.9347,-343.4195 561,-327 591.7253,-300.5387 591.0392,-284.3069 601,-245 602.5166,-239.0153 603.3119,-232.4669 603.6797,-226.2095"/>
<polygon fill="#000000" stroke="#000000" points="607.1812,-226.1934 603.9468,-216.1044 600.1837,-226.0083 607.1812,-226.1934"/>
<text text-anchor="start" x="573" y="-318" font-family="Helvetica,sans-Serif" font-size="10.00" fill="#000000">SN_S5 &#160;&#160;</text>
</g>
<!-- WE_YELLOW&#45;&gt;EW_PRIMARY_GREEN -->
<g id="edge36" class="edge transition">
<title>WE_YELLOW&#45;&gt;EW_PRIMARY_GREEN</title>
<path fill="none" stroke="#000000" d="M323.5165,-443.9538C311.1184,-401.4998 282,-291.8063 282,-198 282,-198 282,-198 282,-116 282,-108.1113 366.1938,-76.9326 427.1911,-55.3792"/>
<polygon fill="#000000" stroke="#000000" points="428.4955,-58.6306 436.7652,-52.0077 426.1703,-52.0281 428.4955,-58.6306"/>
<text text-anchor="start" x="284" y="-236" font-family="Helvetica,sans-Serif" font-size="10.00" fill="#000000">EW_S1 &#160;&#160;</text>
</g>
<!-- WE_YELLOW&#45;&gt;EW_EXTENDED_GREEN -->
<g id="edge33" class="edge transition">
<title>WE_YELLOW&#45;&gt;EW_EXTENDED_GREEN</title>
<path fill="none" stroke="#000000" d="M377.895,-443.8908C423.6272,-426.9529 491.9851,-401.6352 540.5721,-383.64"/>
<polygon fill="#000000" stroke="#000000" points="541.8515,-386.8985 550.0133,-380.1432 539.4202,-380.3343 541.8515,-386.8985"/>
<text text-anchor="start" x="503" y="-400" font-family="Helvetica,sans-Serif" font-size="10.00" fill="#000000">EW_S5 &#160;&#160;</text>
</g>
<!-- NS_PRIMARY_GREEN&#45;&gt;NS_YELLOW -->
<g id="edge38" class="edge transition">
<title>NS_PRIMARY_GREEN&#45;&gt;NS_YELLOW</title>
<path fill="none" stroke="#000000" d="M578.0026,-797.8237C565.7212,-790.138 551.4892,-780.9141 539,-772 517.1541,-756.4077 493.4977,-737.5552 475.511,-722.7814"/>
<polygon fill="#000000" stroke="#000000" points="477.6115,-719.9769 467.6726,-716.3068 473.1535,-725.3738 477.6115,-719.9769"/>
<text text-anchor="middle" x="526.3895" y="-754" font-family="Helvetica,sans-Serif" font-size="10.00" fill="#000000"> </text>
</g>
<!-- NS_EXTENDED_GREEN&#45;&gt;NS_YELLOW -->
<g id="edge39" class="edge transition">
<title>NS_EXTENDED_GREEN&#45;&gt;NS_YELLOW</title>
<path fill="none" stroke="#000000" d="M99.9855,-49.629C78.9413,-56.0478 62,-64.4816 62,-75 62,-306.5 62,-306.5 62,-306.5 62,-328.6076 109.0731,-477.0057 116,-498 120.3192,-511.0908 119.7894,-515.2513 127,-527 154.9768,-572.5844 167.9318,-580.5714 208,-616 224.7208,-630.7847 229.4337,-634.2608 249,-645 292.5064,-668.879 347.4077,-682.4962 388.1948,-689.9311"/>
<polygon fill="#000000" stroke="#000000" points="387.791,-693.4136 398.2447,-691.6906 388.9982,-686.5185 387.791,-693.4136"/>
<text text-anchor="middle" x="66.3895" y="-318" font-family="Helvetica,sans-Serif" font-size="10.00" fill="#000000"> </text>
</g>
<!-- SN_PRIMARY_GREEN&#45;&gt;SN_YELLOW -->
<g id="edge40" class="edge transition">
<title>SN_PRIMARY_GREEN&#45;&gt;SN_YELLOW</title>
<path fill="none" stroke="#000000" d="M453.7477,-188.6662C474.0318,-184.8077 495.7096,-179.4342 515,-172 535.9495,-163.9264 557.4858,-151.1071 574.45,-139.7699"/>
<polygon fill="#000000" stroke="#000000" points="576.5967,-142.5421 582.8771,-134.0094 572.6464,-136.7633 576.5967,-142.5421"/>
<text text-anchor="middle" x="556.3895" y="-154" font-family="Helvetica,sans-Serif" font-size="10.00" fill="#000000"> </text>
</g>
<!-- SN_EXTENDED_GREEN&#45;&gt;SN_YELLOW -->
<g id="edge41" class="edge transition">
<title>SN_EXTENDED_GREEN&#45;&gt;SN_YELLOW</title>
<path fill="none" stroke="#000000" d="M603.8877,-179.8015C604.3952,-169.3976 605.0429,-156.1215 605.6158,-144.3768"/>
<polygon fill="#000000" stroke="#000000" points="609.1233,-144.3063 606.1148,-134.1476 602.1316,-143.9651 609.1233,-144.3063"/>
<text text-anchor="middle" x="606.3895" y="-154" font-family="Helvetica,sans-Serif" font-size="10.00" fill="#000000"> </text>
</g>
<!-- EW_PRIMARY_GREEN&#45;&gt;EW_YELLOW -->
<g id="edge42" class="edge transition">
<title>EW_PRIMARY_GREEN&#45;&gt;EW_YELLOW</title>
<path fill="none" stroke="#000000" d="M489,-52.3688C489,-59.4426 489,-67.5972 489,-75 489,-142.5 489,-142.5 489,-142.5 489,-180.2585 491.2862,-223.794 493.0362,-251.5873"/>
<polygon fill="#000000" stroke="#000000" points="489.5569,-252.0209 493.6981,-261.7729 496.5421,-251.5669 489.5569,-252.0209"/>
<text text-anchor="middle" x="490.3895" y="-154" font-family="Helvetica,sans-Serif" font-size="10.00" fill="#000000"> </text>
</g>
<!-- EW_EXTENDED_GREEN&#45;&gt;EW_YELLOW -->
<g id="edge43" class="edge transition">
<title>EW_EXTENDED_GREEN&#45;&gt;EW_YELLOW</title>
<path fill="none" stroke="#000000" d="M575.919,-343.8015C561.2427,-332.2298 542.06,-317.105 526.0554,-304.486"/>
<polygon fill="#000000" stroke="#000000" points="528.0362,-301.5907 518.0165,-298.1476 523.7021,-307.0876 528.0362,-301.5907"/>
<text text-anchor="middle" x="554.3895" y="-318" font-family="Helvetica,sans-Serif" font-size="10.00" fill="#000000"> </text>
</g>
<!-- WE_PRIMARY_GREEN&#45;&gt;WE_YELLOW -->
<g id="edge44" class="edge transition">
<title>WE_PRIMARY_GREEN&#45;&gt;WE_YELLOW</title>
<path fill="none" stroke="#000000" d="M840,-52.3688C840,-59.4426 840,-67.5972 840,-75 840,-142.5 840,-142.5 840,-142.5 840,-230.0242 786.2327,-237.7967 745,-315 723.1794,-355.8564 737.3415,-381.5957 700,-409 675.3344,-427.1016 486.6326,-447.215 388.2581,-456.6118"/>
<polygon fill="#000000" stroke="#000000" points="387.7896,-453.1404 378.1646,-457.5686 388.4503,-460.1092 387.7896,-453.1404"/>
<text text-anchor="middle" x="808.3895" y="-236" font-family="Helvetica,sans-Serif" font-size="10.00" fill="#000000"> </text>
</g>
<!-- WE_EXTENDED_GREEN&#45;&gt;WE_YELLOW -->
<g id="edge45" class="edge transition">
<title>WE_EXTENDED_GREEN&#45;&gt;WE_YELLOW</title>
<path fill="none" stroke="#000000" d="M372.143,-561.8211C363.7703,-542.4488 350.42,-511.5601 340.7866,-489.2709"/>
<polygon fill="#000000" stroke="#000000" points="343.9624,-487.7967 336.7822,-480.0059 337.5368,-490.5739 343.9624,-487.7967"/>
<text text-anchor="middle" x="358.3895" y="-518" font-family="Helvetica,sans-Serif" font-size="10.00" fill="#000000"> </text>
</g>
</g>
</svg>
